OpenSim_Sub06_CSStiffKnee_LCS.mot
version=1
nRows=32
nColumns=11
inDegrees=no
endheader
time	Bot_Shank	2nd_Bot_Shank	2nd_Top_Shank	Top_Shank	Bot_Thigh	Med_Thigh	Top_Thigh	BNOx	BNOy	BNOZ
53.73000000	10506.74214388	10428.39284175	10312.79257262	10765.12537307	13036.89635304	13979.96874426	14772.06439328	220.44165232	-76.51209655	173.01046791
53.74000000	10494.33882679	10420.94548604	10254.24818141	10737.20865347	13039.88971729	13996.87394616	14794.45063821	220.16176745	-76.52416161	192.48595423
53.75000000	10481.29211412	10412.97306104	10192.52450158	10711.35389351	13041.54855087	14016.39060519	14818.10842080	219.70244537	-76.82887826	206.05984316
53.76000000	10468.68181720	10405.25091369	10131.11798350	10688.99330081	13042.85821725	14037.61654491	14842.40284988	219.09916958	-77.35978706	213.63895397
53.77000000	10457.58774737	10398.55439094	10073.52507750	10671.55908298	13044.80407986	14059.64958889	14866.69903426	218.38742357	-78.05042857	215.13010593
53.78000000	10449.08971595	10393.65883973	10023.24223393	10660.48344764	13048.37150217	14081.58756069	14890.36208274	217.60269085	-78.83434334	210.44011831
53.79000000	10444.26753429	10391.33960699	9983.76590314	10657.19860239	13054.54584763	14102.52828388	14912.75710414	216.78045491	-79.64507193	199.47581038
53.80000000	10444.20101370	10392.37203967	9958.59253548	10663.13675484	13064.31247968	14121.56958202	14933.24920728	215.95619924	-80.41615490	182.14400141
53.81000000	10449.96996554	10397.53148471	9951.21858130	10679.73011260	13078.65676178	14137.80927867	14951.20350097	215.16540735	-81.08113280	158.35151068
53.82000000	10462.48683258	10407.47483754	9964.68751987	10708.14172193	13098.39327399	14150.41539098	14966.02494392	214.44049952	-81.57858735	128.11238099
53.83000000	10480.93620934	10421.63614576	9997.36653143	10746.75591095	13122.57349442	14159.28058764	14977.52988994	213.78227270	-81.89914311	92.54758965
53.84000000	10503.48335250	10438.72804238	10044.86403073	10792.31771311	13149.20876561	14164.72504284	14985.77739382	213.17286775	-82.06412717	53.43114594
53.85000000	10528.28034399	10457.45383624	10102.75277588	10841.55097429	13176.29698654	14167.07445624	14990.82964727	212.59418440	-82.09526343	12.54549947
53.86000000	10553.47926573	10476.51683617	10166.60552500	10891.17954033	13201.83605616	14166.65452748	14992.74884195	212.02812237	-82.01427580	-28.32690015
53.87000000	10577.23219962	10494.62035101	10231.99503622	10937.92725708	13223.82387343	14163.79095621	14991.59716957	211.45658142	-81.84288819	-67.40360329
53.88000000	10597.69122760	10510.46768959	10294.49406766	10978.51797040	13240.25833731	14158.80944208	14987.43682181	210.86146126	-81.60282450	-102.90216036
53.89000000	10613.00843157	10522.76216076	10349.67537743	11009.67552615	13249.13734676	14152.03568474	14980.32999034	210.22466163	-81.31580864	-133.04012173
53.90000000	10621.33589346	10530.20707334	10393.11172366	11028.12377017	13248.45880075	14143.79538384	14970.33886687	209.52808226	-81.00356451	-156.03503779
53.91000000	10621.16072911	10531.73989505	10421.01322429	11031.19067675	13236.64115224	14134.43762048	14957.61642876	208.75704846	-80.68606784	-170.39382862
53.92000000	10613.44616440	10528.02867413	10434.30048461	11020.66910688	13215.21101116	14124.48427934	14942.98661637	207.92220257	-80.37037420	-176.76203717
53.93000000	10600.26522509	10520.51711009	10436.00536433	11000.35309700	13187.08807258	14114.53469620	14927.57409766	207.04553411	-80.05774831	-176.74374349
53.94000000	10583.69617184	10510.65256121	10429.16968188	10974.04612301	13155.19860274	14105.18857215	14912.50495910	206.14908614	-79.74942757	-171.94754903
53.95000000	10565.81726530	10499.88238574	10416.83525570	10945.55166087	13122.46886788	14097.04560829	14898.90528719	205.25490172	-79.44664938	-163.98205525
53.96000000	10548.70676614	10489.65394195	10402.04390423	10918.67318650	13091.82513421	14090.70550572	14887.90116840	204.38502390	-79.15065116	-154.45586359
53.97000000	10534.44293502	10481.41458811	10387.83744592	10897.21417582	13066.19366798	14086.76796555	14880.61868921	203.56149572	-78.86267030	-144.97757551
53.98000000	10525.00159839	10476.53809625	10377.12401554	10884.78919957	13048.35805483	14085.79168388	14878.11216023	202.80517321	-78.58384168	-137.08702674
53.99000000	10520.82586382	10475.29717069	10370.81144452	10882.18624673	13038.96695627	14087.72180056	14880.36191217	202.11915062	-78.31376595	-131.29511416
54	10521.17894880	10477.11691162	10368.26772673	10888.01739807	13037.02556491	14092.03113867	14886.52152395	201.49284924	-78.05086275	-127.32065547
54.01000000	10525.29371994	10481.40061587	10368.82124609	10900.83876246	13041.49679768	14098.18037162	14895.72330752	200.91533859	-77.79352131	-124.86209335
54.02000000	10532.40304388	10487.55158031	10371.80038653	10919.20644877	13051.34357147	14105.63017286	14907.09957486	200.37568824	-77.54013087	-123.61787046
54.03000000	10541.73978723	10494.97310180	10376.53353197	10941.67656586	13065.52880319	14113.84121580	14919.78263793	199.86296773	-77.28908069	-123.28642949
54.04000000	10552.53681661	10503.06847719	10382.34906631	10966.80522259	13083.01540975	14122.27417388	14932.90480872	199.36624659	-77.03876000	-123.56621311
